<svg viewBox="0 0 200 200" xmlns="http://www.w3.org/2000/svg">
  <!-- Green background circle -->
  <circle cx="100" cy="100" r="95" fill="#367C2B" stroke="#FFD700" stroke-width="3"/>
  
  <!-- Yellow deer silhouette -->
  <g transform="translate(100, 100)">
    <!-- Deer body -->
    <ellipse cx="0" cy="5" rx="25" ry="35" fill="#FFD700"/>
    
    <!-- Deer head -->
    <circle cx="0" cy="-35" r="18" fill="#FFD700"/>
    
    <!-- Deer ears -->
    <ellipse cx="-12" cy="-50" rx="6" ry="12" fill="#FFD700"/>
    <ellipse cx="12" cy="-50" rx="6" ry="12" fill="#FFD700"/>
    
    <!-- Deer antlers -->
    <line x1="-8" y1="-52" x2="-15" y2="-70" stroke="#FFD700" stroke-width="3" stroke-linecap="round"/>
    <line x1="-15" y1="-70" x2="-20" y2="-75" stroke="#FFD700" stroke-width="2" stroke-linecap="round"/>
    <line x1="-15" y1="-70" x2="-12" y2="-80" stroke="#FFD700" stroke-width="2" stroke-linecap="round"/>
    
    <line x1="8" y1="-52" x2="15" y2="-70" stroke="#FFD700" stroke-width="3" stroke-linecap="round"/>
    <line x1="15" y1="-70" x2="20" y2="-75" stroke="#FFD700" stroke-width="2" stroke-linecap="round"/>
    <line x1="15" y1="-70" x2="12" y2="-80" stroke="#FFD700" stroke-width="2" stroke-linecap="round"/>
    
    <!-- Deer legs -->
    <rect x="-15" y="35" width="6" height="25" fill="#FFD700" rx="3"/>
    <rect x="-3" y="35" width="6" height="25" fill="#FFD700" rx="3"/>
    <rect x="9" y="35" width="6" height="25" fill="#FFD700" rx="3"/>
    <rect x="21" y="35" width="6" height="25" fill="#FFD700" rx="3"/>
  </g>
</svg>